<mxfile host="Electron" modified="2024-02-14T08:01:12.147Z" agent="Mozilla/5.0 (Windows NT 10.0; Win64; x64) AppleWebKit/537.36 (KHTML, like Gecko) draw.io/23.0.2 Chrome/120.0.6099.109 Electron/28.1.0 Safari/537.36" etag="mChwGmcQ7VHQoiXxQwRa" version="23.0.2" type="device" pages="2">
  <diagram name="ERD/UML Diagram" id="DCxEARpN63MwyvXHJKZ3">
    <mxGraphModel dx="2759" dy="1144" grid="1" gridSize="13" guides="1" tooltips="1" connect="1" arrows="1" fold="1" page="1" pageScale="1" pageWidth="850" pageHeight="1100" background="#ffffff" math="0" shadow="0">
      <root>
        <mxCell id="0" />
        <mxCell id="1" parent="0" />
        <mxCell id="G_Qm9bLnn5VMsTUOByjG-75" value="" style="edgeStyle=orthogonalEdgeStyle;rounded=0;hachureGap=4;orthogonalLoop=1;jettySize=auto;html=1;fontFamily=Architects Daughter;fontSource=https%3A%2F%2Ffonts.googleapis.com%2Fcss%3Ffamily%3DArchitects%2BDaughter;fontSize=16;sketch=1;curveFitting=1;jiggle=2;" parent="1" source="i5FWpLEEM0d3bq2BCy_X-2" target="G_Qm9bLnn5VMsTUOByjG-74" edge="1">
          <mxGeometry relative="1" as="geometry">
            <Array as="points">
              <mxPoint x="299" y="104" />
              <mxPoint x="299" y="104" />
            </Array>
          </mxGeometry>
        </mxCell>
        <mxCell id="r-qjSwi07_WqMyrS1f1j-11" value="" style="edgeStyle=orthogonalEdgeStyle;rounded=0;orthogonalLoop=1;jettySize=auto;html=1;" parent="1" source="i5FWpLEEM0d3bq2BCy_X-2" target="r-qjSwi07_WqMyrS1f1j-10" edge="1">
          <mxGeometry relative="1" as="geometry">
            <Array as="points">
              <mxPoint x="432" y="260" />
              <mxPoint x="432" y="217" />
            </Array>
          </mxGeometry>
        </mxCell>
        <mxCell id="i5FWpLEEM0d3bq2BCy_X-2" value="&lt;font data-font-src=&quot;https://fonts.googleapis.com/css?family=Architects+Daughter&quot; face=&quot;Architects Daughter&quot;&gt;User&lt;/font&gt;" style="swimlane;whiteSpace=wrap;html=1;hachureGap=4;fontFamily=Architects Daughter;fontSource=https%3A%2F%2Ffonts.googleapis.com%2Fcss%3Ffamily%3DArchitects%2BDaughter;fontSize=20;sketch=1;curveFitting=1;jiggle=2;" parent="1" vertex="1">
          <mxGeometry x="169" y="208" width="200" height="182" as="geometry" />
        </mxCell>
        <mxCell id="i5FWpLEEM0d3bq2BCy_X-3" value="&lt;font style=&quot;font-size: 16px;&quot;&gt;&lt;b style=&quot;&quot;&gt;&lt;font data-font-src=&quot;https://fonts.googleapis.com/css?family=Architects+Daughter&quot; face=&quot;Architects Daughter&quot;&gt;id : int&lt;br&gt;username : string&lt;br&gt;email : string&lt;br&gt;password : string&lt;br&gt;profile image : string&lt;br&gt;profile cover : string&lt;/font&gt;&lt;br&gt;&lt;/b&gt;&lt;/font&gt;" style="text;html=1;align=left;verticalAlign=middle;resizable=0;points=[];autosize=1;strokeColor=none;fillColor=none;fontSize=20;fontFamily=Architects Daughter;sketch=1;curveFitting=1;jiggle=2;" parent="i5FWpLEEM0d3bq2BCy_X-2" vertex="1">
          <mxGeometry x="13" y="26" width="182" height="156" as="geometry" />
        </mxCell>
        <mxCell id="kqZAGZ3MuXNG4cLzoERc-3" style="edgeStyle=orthogonalEdgeStyle;rounded=0;sketch=1;hachureGap=4;jiggle=2;curveFitting=1;orthogonalLoop=1;jettySize=auto;html=1;fontFamily=Architects Daughter;fontSource=https%3A%2F%2Ffonts.googleapis.com%2Fcss%3Ffamily%3DArchitects%2BDaughter;fontSize=16;entryX=0.531;entryY=0.002;entryDx=0;entryDy=0;entryPerimeter=0;" parent="1" source="i5FWpLEEM0d3bq2BCy_X-6" target="i5FWpLEEM0d3bq2BCy_X-6" edge="1">
          <mxGeometry relative="1" as="geometry">
            <mxPoint x="871" y="169" as="targetPoint" />
            <Array as="points">
              <mxPoint x="1092" y="325" />
              <mxPoint x="1092" y="169" />
              <mxPoint x="871" y="169" />
            </Array>
          </mxGeometry>
        </mxCell>
        <mxCell id="i5FWpLEEM0d3bq2BCy_X-6" value="Question" style="swimlane;whiteSpace=wrap;html=1;hachureGap=4;fontFamily=Architects Daughter;fontSource=https%3A%2F%2Ffonts.googleapis.com%2Fcss%3Ffamily%3DArchitects%2BDaughter;fontSize=20;startSize=23;sketch=1;curveFitting=1;jiggle=2;" parent="1" vertex="1">
          <mxGeometry x="754" y="208" width="221" height="150" as="geometry" />
        </mxCell>
        <mxCell id="i5FWpLEEM0d3bq2BCy_X-7" value="&lt;font style=&quot;font-size: 16px;&quot;&gt;&lt;b style=&quot;&quot;&gt;id : int&lt;br&gt;Text : string&lt;br&gt;CreatedDate : datetime&lt;br&gt;IsAnonymous : bool&lt;br&gt;isRepliedTo : bool&lt;br&gt;&lt;/b&gt;&lt;/font&gt;" style="text;html=1;align=left;verticalAlign=middle;resizable=0;points=[];autosize=1;strokeColor=none;fillColor=none;fontSize=20;fontFamily=Architects Daughter;sketch=1;curveFitting=1;jiggle=2;" parent="i5FWpLEEM0d3bq2BCy_X-6" vertex="1">
          <mxGeometry x="6.5" y="20" width="195" height="130" as="geometry" />
        </mxCell>
        <mxCell id="i5FWpLEEM0d3bq2BCy_X-8" value="&lt;font data-font-src=&quot;https://fonts.googleapis.com/css?family=Architects+Daughter&quot; face=&quot;Architects Daughter&quot;&gt;Answer&lt;/font&gt;" style="swimlane;whiteSpace=wrap;html=1;hachureGap=4;fontFamily=Architects Daughter;fontSource=https%3A%2F%2Ffonts.googleapis.com%2Fcss%3Ffamily%3DArchitects%2BDaughter;fontSize=20;startSize=23;sketch=1;curveFitting=1;jiggle=2;" parent="1" vertex="1">
          <mxGeometry x="158.5" y="624" width="221" height="117" as="geometry" />
        </mxCell>
        <mxCell id="i5FWpLEEM0d3bq2BCy_X-9" value="&lt;font style=&quot;font-size: 16px;&quot;&gt;&lt;b style=&quot;&quot;&gt;&lt;font data-font-src=&quot;https://fonts.googleapis.com/css?family=Architects+Daughter&quot; face=&quot;Architects Daughter&quot;&gt;id : int&lt;br&gt;Text : string&lt;br&gt;CreatedDate : datetime&lt;/font&gt;&lt;br&gt;&lt;/b&gt;&lt;/font&gt;" style="text;html=1;align=left;verticalAlign=middle;resizable=0;points=[];autosize=1;strokeColor=none;fillColor=none;fontSize=20;fontFamily=Architects Daughter;sketch=1;curveFitting=1;jiggle=2;" parent="i5FWpLEEM0d3bq2BCy_X-8" vertex="1">
          <mxGeometry x="6.5" y="26" width="195" height="91" as="geometry" />
        </mxCell>
        <mxCell id="G_Qm9bLnn5VMsTUOByjG-6" style="edgeStyle=orthogonalEdgeStyle;rounded=0;hachureGap=4;orthogonalLoop=1;jettySize=auto;html=1;exitX=1;exitY=0.5;exitDx=0;exitDy=0;fontFamily=Architects Daughter;fontSource=https%3A%2F%2Ffonts.googleapis.com%2Fcss%3Ffamily%3DArchitects%2BDaughter;fontSize=16;sketch=1;curveFitting=1;jiggle=2;" parent="1" source="G_Qm9bLnn5VMsTUOByjG-1" edge="1">
          <mxGeometry relative="1" as="geometry">
            <mxPoint x="754" y="312.13043478260875" as="targetPoint" />
          </mxGeometry>
        </mxCell>
        <mxCell id="G_Qm9bLnn5VMsTUOByjG-1" value="send" style="rhombus;whiteSpace=wrap;html=1;hachureGap=4;fontFamily=Architects Daughter;fontSource=https%3A%2F%2Ffonts.googleapis.com%2Fcss%3Ffamily%3DArchitects%2BDaughter;fontSize=20;sketch=1;curveFitting=1;jiggle=2;" parent="1" vertex="1">
          <mxGeometry x="495" y="272" width="80" height="80" as="geometry" />
        </mxCell>
        <mxCell id="G_Qm9bLnn5VMsTUOByjG-2" value="" style="edgeStyle=orthogonalEdgeStyle;rounded=0;hachureGap=4;orthogonalLoop=1;jettySize=auto;html=1;fontFamily=Architects Daughter;fontSource=https%3A%2F%2Ffonts.googleapis.com%2Fcss%3Ffamily%3DArchitects%2BDaughter;fontSize=16;sketch=1;curveFitting=1;jiggle=2;" parent="1" source="i5FWpLEEM0d3bq2BCy_X-3" target="G_Qm9bLnn5VMsTUOByjG-1" edge="1">
          <mxGeometry relative="1" as="geometry" />
        </mxCell>
        <mxCell id="G_Qm9bLnn5VMsTUOByjG-9" value="1" style="text;html=1;align=center;verticalAlign=middle;resizable=0;points=[];autosize=1;strokeColor=none;fillColor=none;fontSize=20;fontFamily=Architects Daughter;sketch=1;curveFitting=1;jiggle=2;" parent="1" vertex="1">
          <mxGeometry x="372" y="272" width="26" height="39" as="geometry" />
        </mxCell>
        <mxCell id="G_Qm9bLnn5VMsTUOByjG-10" value="M" style="text;html=1;align=center;verticalAlign=middle;resizable=0;points=[];autosize=1;strokeColor=none;fillColor=none;fontSize=20;fontFamily=Architects Daughter;sketch=1;curveFitting=1;jiggle=2;" parent="1" vertex="1">
          <mxGeometry x="715" y="272" width="39" height="39" as="geometry" />
        </mxCell>
        <mxCell id="G_Qm9bLnn5VMsTUOByjG-12" value="send" style="rhombus;whiteSpace=wrap;html=1;hachureGap=4;fontFamily=Architects Daughter;fontSource=https%3A%2F%2Ffonts.googleapis.com%2Fcss%3Ffamily%3DArchitects%2BDaughter;fontSize=20;sketch=1;curveFitting=1;jiggle=2;" parent="1" vertex="1">
          <mxGeometry x="233" y="457" width="80" height="78" as="geometry" />
        </mxCell>
        <mxCell id="G_Qm9bLnn5VMsTUOByjG-13" value="" style="edgeStyle=orthogonalEdgeStyle;rounded=0;hachureGap=4;orthogonalLoop=1;jettySize=auto;html=1;fontFamily=Architects Daughter;fontSource=https%3A%2F%2Ffonts.googleapis.com%2Fcss%3Ffamily%3DArchitects%2BDaughter;fontSize=16;sketch=1;curveFitting=1;jiggle=2;" parent="1" source="i5FWpLEEM0d3bq2BCy_X-3" target="G_Qm9bLnn5VMsTUOByjG-12" edge="1">
          <mxGeometry relative="1" as="geometry">
            <Array as="points">
              <mxPoint x="273" y="416" />
              <mxPoint x="273" y="416" />
            </Array>
          </mxGeometry>
        </mxCell>
        <mxCell id="G_Qm9bLnn5VMsTUOByjG-14" style="edgeStyle=orthogonalEdgeStyle;rounded=0;hachureGap=4;orthogonalLoop=1;jettySize=auto;html=1;fontFamily=Architects Daughter;fontSource=https%3A%2F%2Ffonts.googleapis.com%2Fcss%3Ffamily%3DArchitects%2BDaughter;fontSize=16;sketch=1;curveFitting=1;jiggle=2;" parent="1" source="G_Qm9bLnn5VMsTUOByjG-12" edge="1">
          <mxGeometry relative="1" as="geometry">
            <mxPoint x="273" y="624" as="targetPoint" />
            <Array as="points">
              <mxPoint x="273" y="624" />
            </Array>
          </mxGeometry>
        </mxCell>
        <mxCell id="G_Qm9bLnn5VMsTUOByjG-15" value="1" style="text;html=1;align=center;verticalAlign=middle;resizable=0;points=[];autosize=1;strokeColor=none;fillColor=none;fontSize=20;fontFamily=Architects Daughter;sketch=1;curveFitting=1;jiggle=2;" parent="1" vertex="1">
          <mxGeometry x="274" y="385.5" width="26" height="39" as="geometry" />
        </mxCell>
        <mxCell id="G_Qm9bLnn5VMsTUOByjG-16" value="M" style="text;html=1;align=center;verticalAlign=middle;resizable=0;points=[];autosize=1;strokeColor=none;fillColor=none;fontSize=20;fontFamily=Architects Daughter;sketch=1;curveFitting=1;jiggle=2;" parent="1" vertex="1">
          <mxGeometry x="274" y="585" width="39" height="39" as="geometry" />
        </mxCell>
        <mxCell id="G_Qm9bLnn5VMsTUOByjG-26" style="edgeStyle=orthogonalEdgeStyle;rounded=0;hachureGap=4;orthogonalLoop=1;jettySize=auto;html=1;entryX=1;entryY=0.5;entryDx=0;entryDy=0;fontFamily=Architects Daughter;fontSource=https%3A%2F%2Ffonts.googleapis.com%2Fcss%3Ffamily%3DArchitects%2BDaughter;fontSize=16;sketch=1;curveFitting=1;jiggle=2;" parent="1" source="G_Qm9bLnn5VMsTUOByjG-24" target="i5FWpLEEM0d3bq2BCy_X-8" edge="1">
          <mxGeometry relative="1" as="geometry" />
        </mxCell>
        <mxCell id="G_Qm9bLnn5VMsTUOByjG-24" value="has" style="rhombus;whiteSpace=wrap;html=1;hachureGap=4;fontFamily=Architects Daughter;fontSource=https%3A%2F%2Ffonts.googleapis.com%2Fcss%3Ffamily%3DArchitects%2BDaughter;fontSize=20;sketch=1;curveFitting=1;jiggle=2;" parent="1" vertex="1">
          <mxGeometry x="495" y="505" width="80" height="80" as="geometry" />
        </mxCell>
        <mxCell id="G_Qm9bLnn5VMsTUOByjG-25" value="" style="edgeStyle=orthogonalEdgeStyle;rounded=0;hachureGap=4;orthogonalLoop=1;jettySize=auto;html=1;fontFamily=Architects Daughter;fontSource=https%3A%2F%2Ffonts.googleapis.com%2Fcss%3Ffamily%3DArchitects%2BDaughter;fontSize=16;sketch=1;curveFitting=1;jiggle=2;" parent="1" source="i5FWpLEEM0d3bq2BCy_X-7" target="G_Qm9bLnn5VMsTUOByjG-24" edge="1">
          <mxGeometry relative="1" as="geometry">
            <Array as="points">
              <mxPoint x="858" y="416" />
              <mxPoint x="535" y="416" />
            </Array>
          </mxGeometry>
        </mxCell>
        <mxCell id="G_Qm9bLnn5VMsTUOByjG-27" value="1" style="text;html=1;align=center;verticalAlign=middle;resizable=0;points=[];autosize=1;strokeColor=none;fillColor=none;fontSize=20;fontFamily=Architects Daughter;sketch=1;curveFitting=1;jiggle=2;" parent="1" vertex="1">
          <mxGeometry x="824" y="351" width="26" height="39" as="geometry" />
        </mxCell>
        <mxCell id="G_Qm9bLnn5VMsTUOByjG-38" value="1" style="text;html=1;align=center;verticalAlign=middle;resizable=0;points=[];autosize=1;strokeColor=none;fillColor=none;fontSize=20;fontFamily=Architects Daughter;sketch=1;curveFitting=1;jiggle=2;" parent="1" vertex="1">
          <mxGeometry x="346" y="169" width="26" height="39" as="geometry" />
        </mxCell>
        <mxCell id="G_Qm9bLnn5VMsTUOByjG-54" value="M" style="text;strokeColor=none;align=center;fillColor=none;html=1;verticalAlign=middle;whiteSpace=wrap;rounded=0;fontSize=20;fontFamily=Architects Daughter;sketch=1;curveFitting=1;jiggle=2;" parent="1" vertex="1">
          <mxGeometry x="369" y="648" width="60" height="30" as="geometry" />
        </mxCell>
        <mxCell id="G_Qm9bLnn5VMsTUOByjG-74" value="follow" style="rhombus;whiteSpace=wrap;html=1;fontSize=20;fontFamily=Architects Daughter;fontStyle=1;startSize=23;hachureGap=4;fontSource=https%3A%2F%2Ffonts.googleapis.com%2Fcss%3Ffamily%3DArchitects%2BDaughter;sketch=1;curveFitting=1;jiggle=2;" parent="1" vertex="1">
          <mxGeometry x="206" y="26" width="80" height="80" as="geometry" />
        </mxCell>
        <mxCell id="G_Qm9bLnn5VMsTUOByjG-76" style="edgeStyle=orthogonalEdgeStyle;rounded=0;hachureGap=4;orthogonalLoop=1;jettySize=auto;html=1;entryX=0.383;entryY=-0.018;entryDx=0;entryDy=0;entryPerimeter=0;fontFamily=Architects Daughter;fontSource=https%3A%2F%2Ffonts.googleapis.com%2Fcss%3Ffamily%3DArchitects%2BDaughter;fontSize=16;sketch=1;curveFitting=1;jiggle=2;" parent="1" source="G_Qm9bLnn5VMsTUOByjG-74" target="i5FWpLEEM0d3bq2BCy_X-2" edge="1">
          <mxGeometry relative="1" as="geometry" />
        </mxCell>
        <mxCell id="G_Qm9bLnn5VMsTUOByjG-77" value="M" style="text;strokeColor=none;align=center;fillColor=none;html=1;verticalAlign=middle;whiteSpace=wrap;rounded=0;fontSize=20;fontFamily=Architects Daughter;sketch=1;curveFitting=1;jiggle=2;" parent="1" vertex="1">
          <mxGeometry x="286" y="178" width="60" height="30" as="geometry" />
        </mxCell>
        <mxCell id="G_Qm9bLnn5VMsTUOByjG-80" value="N" style="text;strokeColor=none;align=center;fillColor=none;html=1;verticalAlign=middle;whiteSpace=wrap;rounded=0;fontSize=20;fontFamily=Architects Daughter;sketch=1;curveFitting=1;jiggle=2;" parent="1" vertex="1">
          <mxGeometry x="195" y="173.5" width="60" height="30" as="geometry" />
        </mxCell>
        <mxCell id="I5_0TWhgbKEnvk4wvMdm-3" value="&lt;font style=&quot;font-size: 20px;&quot; data-font-src=&quot;https://fonts.googleapis.com/css?family=Architects+Daughter&quot; face=&quot;Architects Daughter&quot;&gt;Like&lt;/font&gt;" style="rhombus;whiteSpace=wrap;html=1;sketch=1;curveFitting=1;jiggle=2;" parent="1" vertex="1">
          <mxGeometry x="102" y="456" width="80" height="80" as="geometry" />
        </mxCell>
        <mxCell id="I5_0TWhgbKEnvk4wvMdm-4" value="" style="edgeStyle=orthogonalEdgeStyle;rounded=0;orthogonalLoop=1;jettySize=auto;html=1;sketch=1;curveFitting=1;jiggle=2;" parent="1" source="i5FWpLEEM0d3bq2BCy_X-3" target="I5_0TWhgbKEnvk4wvMdm-3" edge="1">
          <mxGeometry relative="1" as="geometry">
            <Array as="points">
              <mxPoint x="208" y="429" />
              <mxPoint x="142" y="429" />
            </Array>
          </mxGeometry>
        </mxCell>
        <mxCell id="I5_0TWhgbKEnvk4wvMdm-5" style="edgeStyle=orthogonalEdgeStyle;rounded=0;hachureGap=4;orthogonalLoop=1;jettySize=auto;html=1;entryX=0.181;entryY=0;entryDx=0;entryDy=0;entryPerimeter=0;fontFamily=Architects Daughter;fontSource=https%3A%2F%2Ffonts.googleapis.com%2Fcss%3Ffamily%3DArchitects%2BDaughter;fontSize=16;sketch=1;curveFitting=1;jiggle=2;" parent="1" source="I5_0TWhgbKEnvk4wvMdm-3" target="i5FWpLEEM0d3bq2BCy_X-8" edge="1">
          <mxGeometry relative="1" as="geometry" />
        </mxCell>
        <mxCell id="I5_0TWhgbKEnvk4wvMdm-6" value="M" style="text;strokeColor=none;align=center;fillColor=none;html=1;verticalAlign=middle;whiteSpace=wrap;rounded=0;fontSize=20;fontFamily=Architects Daughter;sketch=1;curveFitting=1;jiggle=2;" parent="1" vertex="1">
          <mxGeometry x="158.5" y="390" width="60" height="30" as="geometry" />
        </mxCell>
        <mxCell id="I5_0TWhgbKEnvk4wvMdm-8" value="N" style="text;strokeColor=none;align=center;fillColor=none;html=1;verticalAlign=middle;whiteSpace=wrap;rounded=0;fontSize=20;fontFamily=Architects Daughter;sketch=1;curveFitting=1;jiggle=2;" parent="1" vertex="1">
          <mxGeometry x="146" y="594" width="60" height="30" as="geometry" />
        </mxCell>
        <mxCell id="r-qjSwi07_WqMyrS1f1j-12" style="edgeStyle=orthogonalEdgeStyle;rounded=0;orthogonalLoop=1;jettySize=auto;html=1;" parent="1" source="r-qjSwi07_WqMyrS1f1j-10" edge="1">
          <mxGeometry relative="1" as="geometry">
            <mxPoint x="754" y="260" as="targetPoint" />
            <Array as="points">
              <mxPoint x="650" y="217" />
              <mxPoint x="650" y="260" />
            </Array>
          </mxGeometry>
        </mxCell>
        <mxCell id="r-qjSwi07_WqMyrS1f1j-10" value="&lt;span style=&quot;font-weight: normal;&quot;&gt;receive&lt;/span&gt;" style="rhombus;whiteSpace=wrap;html=1;fontSize=20;fontFamily=Architects Daughter;fontStyle=1;startSize=23;hachureGap=4;fontSource=https%3A%2F%2Ffonts.googleapis.com%2Fcss%3Ffamily%3DArchitects%2BDaughter;sketch=1;curveFitting=1;jiggle=2;" parent="1" vertex="1">
          <mxGeometry x="495" y="177" width="80" height="80" as="geometry" />
        </mxCell>
        <mxCell id="r-qjSwi07_WqMyrS1f1j-13" value="1" style="text;html=1;align=center;verticalAlign=middle;resizable=0;points=[];autosize=1;strokeColor=none;fillColor=none;fontSize=20;fontFamily=Architects Daughter;sketch=1;curveFitting=1;jiggle=2;" parent="1" vertex="1">
          <mxGeometry x="372" y="225" width="26" height="39" as="geometry" />
        </mxCell>
        <mxCell id="r-qjSwi07_WqMyrS1f1j-14" value="M" style="text;html=1;align=center;verticalAlign=middle;resizable=0;points=[];autosize=1;strokeColor=none;fillColor=none;fontSize=20;fontFamily=Architects Daughter;sketch=1;curveFitting=1;jiggle=2;" parent="1" vertex="1">
          <mxGeometry x="715" y="218" width="39" height="39" as="geometry" />
        </mxCell>
        <mxCell id="r-qjSwi07_WqMyrS1f1j-17" value="receive" style="rhombus;whiteSpace=wrap;html=1;hachureGap=4;fontFamily=Architects Daughter;fontSource=https%3A%2F%2Ffonts.googleapis.com%2Fcss%3Ffamily%3DArchitects%2BDaughter;fontSize=20;sketch=1;curveFitting=1;jiggle=2;" parent="1" vertex="1">
          <mxGeometry x="335" y="457" width="80" height="78" as="geometry" />
        </mxCell>
        <mxCell id="r-qjSwi07_WqMyrS1f1j-18" style="edgeStyle=orthogonalEdgeStyle;rounded=0;orthogonalLoop=1;jettySize=auto;html=1;entryX=0.5;entryY=0;entryDx=0;entryDy=0;" parent="1" source="i5FWpLEEM0d3bq2BCy_X-3" target="r-qjSwi07_WqMyrS1f1j-17" edge="1">
          <mxGeometry relative="1" as="geometry">
            <Array as="points">
              <mxPoint x="338" y="423" />
              <mxPoint x="375" y="423" />
            </Array>
          </mxGeometry>
        </mxCell>
        <mxCell id="r-qjSwi07_WqMyrS1f1j-19" style="edgeStyle=orthogonalEdgeStyle;rounded=0;orthogonalLoop=1;jettySize=auto;html=1;entryX=0.973;entryY=-0.009;entryDx=0;entryDy=0;entryPerimeter=0;" parent="1" source="r-qjSwi07_WqMyrS1f1j-17" target="i5FWpLEEM0d3bq2BCy_X-8" edge="1">
          <mxGeometry relative="1" as="geometry" />
        </mxCell>
        <mxCell id="r-qjSwi07_WqMyrS1f1j-20" value="&lt;font style=&quot;font-size: 20px;&quot; data-font-src=&quot;https://fonts.googleapis.com/css?family=Architects+Daughter&quot; face=&quot;Architects Daughter&quot;&gt;1&lt;/font&gt;" style="text;strokeColor=none;align=center;fillColor=none;html=1;verticalAlign=middle;whiteSpace=wrap;rounded=0;" parent="1" vertex="1">
          <mxGeometry x="319.5" y="390" width="60" height="30" as="geometry" />
        </mxCell>
        <mxCell id="r-qjSwi07_WqMyrS1f1j-21" value="&lt;font style=&quot;font-size: 20px;&quot; data-font-src=&quot;https://fonts.googleapis.com/css?family=Architects+Daughter&quot; face=&quot;Architects Daughter&quot;&gt;M&lt;/font&gt;" style="text;strokeColor=none;align=center;fillColor=none;html=1;verticalAlign=middle;whiteSpace=wrap;rounded=0;" parent="1" vertex="1">
          <mxGeometry x="374.5" y="594" width="21" height="30" as="geometry" />
        </mxCell>
        <mxCell id="kqZAGZ3MuXNG4cLzoERc-5" value="has" style="rhombus;whiteSpace=wrap;html=1;hachureGap=4;fontFamily=Architects Daughter;fontSource=https%3A%2F%2Ffonts.googleapis.com%2Fcss%3Ffamily%3DArchitects%2BDaughter;fontSize=20;sketch=1;curveFitting=1;jiggle=2;" parent="1" vertex="1">
          <mxGeometry x="1053" y="192" width="80" height="80" as="geometry" />
        </mxCell>
        <mxCell id="X5RoOhwe17Tm8G7ozbXY-1" value="1" style="text;strokeColor=none;align=center;fillColor=none;html=1;verticalAlign=middle;whiteSpace=wrap;rounded=0;fontSize=20;fontFamily=Architects Daughter;" parent="1" vertex="1">
          <mxGeometry x="962" y="297" width="60" height="30" as="geometry" />
        </mxCell>
        <mxCell id="X5RoOhwe17Tm8G7ozbXY-2" value="M" style="text;strokeColor=none;align=center;fillColor=none;html=1;verticalAlign=middle;whiteSpace=wrap;rounded=0;fontSize=20;fontFamily=Architects Daughter;" parent="1" vertex="1">
          <mxGeometry x="858" y="178" width="60" height="30" as="geometry" />
        </mxCell>
        <mxCell id="8OQNfSiErOw_lMwyUP1p-6" style="edgeStyle=orthogonalEdgeStyle;rounded=0;sketch=1;hachureGap=4;jiggle=2;curveFitting=1;orthogonalLoop=1;jettySize=auto;html=1;entryX=0;entryY=0.5;entryDx=0;entryDy=0;fontFamily=Architects Daughter;fontSource=https%3A%2F%2Ffonts.googleapis.com%2Fcss%3Ffamily%3DArchitects%2BDaughter;fontSize=16;exitX=0.5;exitY=0;exitDx=0;exitDy=0;" edge="1" parent="1" source="8OQNfSiErOw_lMwyUP1p-3" target="i5FWpLEEM0d3bq2BCy_X-2">
          <mxGeometry relative="1" as="geometry" />
        </mxCell>
        <mxCell id="8OQNfSiErOw_lMwyUP1p-3" value="&lt;font data-font-src=&quot;https://fonts.googleapis.com/css?family=Architects+Daughter&quot; face=&quot;Architects Daughter&quot;&gt;Notification&lt;/font&gt;" style="swimlane;whiteSpace=wrap;html=1;hachureGap=4;fontFamily=Architects Daughter;fontSource=https%3A%2F%2Ffonts.googleapis.com%2Fcss%3Ffamily%3DArchitects%2BDaughter;fontSize=20;sketch=1;curveFitting=1;jiggle=2;" vertex="1" parent="1">
          <mxGeometry x="-247" y="385.5" width="200" height="182" as="geometry" />
        </mxCell>
        <mxCell id="8OQNfSiErOw_lMwyUP1p-9" value="id : int&lt;br&gt;isSeen: bool" style="text;html=1;align=center;verticalAlign=middle;resizable=0;points=[];autosize=1;strokeColor=none;fillColor=none;fontSize=20;fontFamily=Architects Daughter;" vertex="1" parent="8OQNfSiErOw_lMwyUP1p-3">
          <mxGeometry x="13" y="39" width="130" height="65" as="geometry" />
        </mxCell>
        <mxCell id="8OQNfSiErOw_lMwyUP1p-7" style="edgeStyle=orthogonalEdgeStyle;rounded=0;sketch=1;hachureGap=4;jiggle=2;curveFitting=1;orthogonalLoop=1;jettySize=auto;html=1;entryX=-0.003;entryY=0.566;entryDx=0;entryDy=0;entryPerimeter=0;fontFamily=Architects Daughter;fontSource=https%3A%2F%2Ffonts.googleapis.com%2Fcss%3Ffamily%3DArchitects%2BDaughter;fontSize=16;exitX=0.5;exitY=1;exitDx=0;exitDy=0;" edge="1" parent="1" source="8OQNfSiErOw_lMwyUP1p-3" target="i5FWpLEEM0d3bq2BCy_X-9">
          <mxGeometry relative="1" as="geometry" />
        </mxCell>
      </root>
    </mxGraphModel>
  </diagram>
  <diagram id="GLdDzCwCGXemMVvpbRyf" name="RelationalDiagram">
    <mxGraphModel dx="1050" dy="1729" grid="1" gridSize="10" guides="1" tooltips="1" connect="1" arrows="1" fold="1" page="1" pageScale="1" pageWidth="850" pageHeight="1100" math="0" shadow="0">
      <root>
        <mxCell id="0" />
        <mxCell id="1" parent="0" />
        <mxCell id="qdAGqf43j6XcbU9vUbqh-1" value="&lt;u&gt;Id&lt;/u&gt;" style="rounded=0;whiteSpace=wrap;html=1;" parent="1" vertex="1">
          <mxGeometry x="40" y="-869" width="40" height="40" as="geometry" />
        </mxCell>
        <mxCell id="m1vTgAEKa8-uWsvJqbE5-1" value="EndUser" style="text;strokeColor=none;align=center;fillColor=none;html=1;verticalAlign=middle;whiteSpace=wrap;rounded=0;movable=1;resizable=1;rotatable=1;deletable=1;editable=1;locked=0;connectable=1;" parent="1" vertex="1">
          <mxGeometry x="40" y="-899" width="60" height="30" as="geometry" />
        </mxCell>
        <mxCell id="jgZMgLfAumoGgeWZVz0Y-5" value="profImg" style="rounded=0;whiteSpace=wrap;html=1;" parent="1" vertex="1">
          <mxGeometry x="160" y="-869" width="80" height="40" as="geometry" />
        </mxCell>
        <mxCell id="jgZMgLfAumoGgeWZVz0Y-6" value="profCover" style="rounded=0;whiteSpace=wrap;html=1;" parent="1" vertex="1">
          <mxGeometry x="240" y="-869" width="80" height="40" as="geometry" />
        </mxCell>
        <mxCell id="jgZMgLfAumoGgeWZVz0Y-7" value="&lt;u&gt;Id&lt;/u&gt;" style="rounded=0;whiteSpace=wrap;html=1;" parent="1" vertex="1">
          <mxGeometry x="50" y="-639" width="40" height="40" as="geometry" />
        </mxCell>
        <mxCell id="jgZMgLfAumoGgeWZVz0Y-8" value="Answer" style="text;strokeColor=none;align=center;fillColor=none;html=1;verticalAlign=middle;whiteSpace=wrap;rounded=0;movable=1;resizable=1;rotatable=1;deletable=1;editable=1;locked=0;connectable=1;" parent="1" vertex="1">
          <mxGeometry x="40" y="-669" width="60" height="30" as="geometry" />
        </mxCell>
        <mxCell id="jgZMgLfAumoGgeWZVz0Y-12" style="edgeStyle=orthogonalEdgeStyle;rounded=0;orthogonalLoop=1;jettySize=auto;html=1;entryX=0;entryY=0.5;entryDx=0;entryDy=0;" parent="1" source="jgZMgLfAumoGgeWZVz0Y-9" target="qdAGqf43j6XcbU9vUbqh-1" edge="1">
          <mxGeometry relative="1" as="geometry">
            <mxPoint x="30" y="-849" as="targetPoint" />
            <Array as="points">
              <mxPoint x="120" y="-669" />
              <mxPoint x="20" y="-669" />
              <mxPoint x="20" y="-849" />
            </Array>
          </mxGeometry>
        </mxCell>
        <mxCell id="jgZMgLfAumoGgeWZVz0Y-9" value="senderId" style="rounded=0;whiteSpace=wrap;html=1;" parent="1" vertex="1">
          <mxGeometry x="90" y="-639" width="70" height="40" as="geometry" />
        </mxCell>
        <mxCell id="jgZMgLfAumoGgeWZVz0Y-10" value="Text" style="rounded=0;whiteSpace=wrap;html=1;" parent="1" vertex="1">
          <mxGeometry x="230" y="-639" width="40" height="40" as="geometry" />
        </mxCell>
        <mxCell id="jgZMgLfAumoGgeWZVz0Y-11" value="CreatedDate" style="rounded=0;whiteSpace=wrap;html=1;" parent="1" vertex="1">
          <mxGeometry x="270" y="-639" width="80" height="40" as="geometry" />
        </mxCell>
        <mxCell id="jgZMgLfAumoGgeWZVz0Y-16" style="edgeStyle=orthogonalEdgeStyle;rounded=0;orthogonalLoop=1;jettySize=auto;html=1;entryX=0;entryY=0.5;entryDx=0;entryDy=0;exitX=0;exitY=0.5;exitDx=0;exitDy=0;" parent="1" source="jgZMgLfAumoGgeWZVz0Y-13" edge="1">
          <mxGeometry relative="1" as="geometry">
            <mxPoint x="50" y="-559" as="sourcePoint" />
            <mxPoint x="40" y="-869" as="targetPoint" />
            <Array as="points">
              <mxPoint x="10" y="-499" />
              <mxPoint x="10" y="-869" />
            </Array>
          </mxGeometry>
        </mxCell>
        <mxCell id="jgZMgLfAumoGgeWZVz0Y-13" value="&lt;u&gt;userId&lt;/u&gt;" style="rounded=0;whiteSpace=wrap;html=1;" parent="1" vertex="1">
          <mxGeometry x="50" y="-519" width="40" height="40" as="geometry" />
        </mxCell>
        <mxCell id="jgZMgLfAumoGgeWZVz0Y-14" value="UserAnswerLilkes" style="text;strokeColor=none;align=center;fillColor=none;html=1;verticalAlign=middle;whiteSpace=wrap;rounded=0;movable=1;resizable=1;rotatable=1;deletable=1;editable=1;locked=0;connectable=1;" parent="1" vertex="1">
          <mxGeometry x="50" y="-549" width="100" height="30" as="geometry" />
        </mxCell>
        <mxCell id="jgZMgLfAumoGgeWZVz0Y-17" style="edgeStyle=orthogonalEdgeStyle;rounded=0;orthogonalLoop=1;jettySize=auto;html=1;entryX=0.5;entryY=1;entryDx=0;entryDy=0;" parent="1" source="jgZMgLfAumoGgeWZVz0Y-15" target="jgZMgLfAumoGgeWZVz0Y-7" edge="1">
          <mxGeometry relative="1" as="geometry" />
        </mxCell>
        <mxCell id="jgZMgLfAumoGgeWZVz0Y-15" value="&lt;u&gt;answerId&lt;/u&gt;" style="rounded=0;whiteSpace=wrap;html=1;" parent="1" vertex="1">
          <mxGeometry x="90" y="-519" width="80" height="40" as="geometry" />
        </mxCell>
        <mxCell id="jgZMgLfAumoGgeWZVz0Y-25" style="edgeStyle=orthogonalEdgeStyle;rounded=0;orthogonalLoop=1;jettySize=auto;html=1;" parent="1" source="jgZMgLfAumoGgeWZVz0Y-19" edge="1">
          <mxGeometry relative="1" as="geometry">
            <mxPoint x="40" y="-829" as="targetPoint" />
            <Array as="points">
              <mxPoint x="40" y="-829" />
            </Array>
          </mxGeometry>
        </mxCell>
        <mxCell id="jgZMgLfAumoGgeWZVz0Y-19" value="&lt;u&gt;userId&lt;/u&gt;" style="rounded=0;whiteSpace=wrap;html=1;" parent="1" vertex="1">
          <mxGeometry x="40" y="-749" width="40" height="40" as="geometry" />
        </mxCell>
        <mxCell id="jgZMgLfAumoGgeWZVz0Y-26" style="edgeStyle=orthogonalEdgeStyle;rounded=0;orthogonalLoop=1;jettySize=auto;html=1;" parent="1" source="jgZMgLfAumoGgeWZVz0Y-20" edge="1">
          <mxGeometry relative="1" as="geometry">
            <mxPoint x="50" y="-829" as="targetPoint" />
            <Array as="points">
              <mxPoint x="120" y="-789" />
              <mxPoint x="50" y="-789" />
              <mxPoint x="50" y="-829" />
            </Array>
          </mxGeometry>
        </mxCell>
        <mxCell id="jgZMgLfAumoGgeWZVz0Y-20" value="&lt;u&gt;followerId&lt;/u&gt;" style="rounded=0;whiteSpace=wrap;html=1;" parent="1" vertex="1">
          <mxGeometry x="80" y="-749" width="80" height="40" as="geometry" />
        </mxCell>
        <mxCell id="jgZMgLfAumoGgeWZVz0Y-27" value="UserFollower" style="text;strokeColor=none;align=center;fillColor=none;html=1;verticalAlign=middle;whiteSpace=wrap;rounded=0;" parent="1" vertex="1">
          <mxGeometry x="40" y="-779" width="60" height="30" as="geometry" />
        </mxCell>
        <mxCell id="c__QhkRxvIsBZrimOEQz-2" style="edgeStyle=orthogonalEdgeStyle;rounded=0;orthogonalLoop=1;jettySize=auto;html=1;entryX=0;entryY=0.75;entryDx=0;entryDy=0;" parent="1" source="c__QhkRxvIsBZrimOEQz-1" target="qdAGqf43j6XcbU9vUbqh-1" edge="1">
          <mxGeometry relative="1" as="geometry">
            <Array as="points">
              <mxPoint x="195" y="-679" />
              <mxPoint x="30" y="-679" />
              <mxPoint x="30" y="-839" />
            </Array>
          </mxGeometry>
        </mxCell>
        <mxCell id="c__QhkRxvIsBZrimOEQz-1" value="receiverId" style="rounded=0;whiteSpace=wrap;html=1;" parent="1" vertex="1">
          <mxGeometry x="160" y="-639" width="70" height="40" as="geometry" />
        </mxCell>
        <mxCell id="bCugXcdC0v_T2JQU-v2l-1" value="&lt;u&gt;Id&lt;/u&gt;" style="rounded=0;whiteSpace=wrap;html=1;" parent="1" vertex="1">
          <mxGeometry x="520" y="-639" width="40" height="40" as="geometry" />
        </mxCell>
        <mxCell id="bCugXcdC0v_T2JQU-v2l-2" value="Question" style="text;strokeColor=none;align=center;fillColor=none;html=1;verticalAlign=middle;whiteSpace=wrap;rounded=0;movable=1;resizable=1;rotatable=1;deletable=1;editable=1;locked=0;connectable=1;" parent="1" vertex="1">
          <mxGeometry x="510" y="-669" width="60" height="30" as="geometry" />
        </mxCell>
        <mxCell id="lF9e51x8-O86zOhd3XaN-1" value="text" style="rounded=0;whiteSpace=wrap;html=1;" parent="1" vertex="1">
          <mxGeometry x="720" y="-639" width="40" height="40" as="geometry" />
        </mxCell>
        <mxCell id="kTAQnE8z6P0A6kFEF3wu-1" value="createdDate" style="rounded=0;whiteSpace=wrap;html=1;" parent="1" vertex="1">
          <mxGeometry x="760" y="-639" width="80" height="40" as="geometry" />
        </mxCell>
        <mxCell id="oolvbrDn9-3jJ18w7rTD-1" value="isAnonymous" style="rounded=0;whiteSpace=wrap;html=1;" parent="1" vertex="1">
          <mxGeometry x="840" y="-639" width="80" height="40" as="geometry" />
        </mxCell>
        <mxCell id="zMXVDSBJU7xBFvs_jf8E-4" style="edgeStyle=orthogonalEdgeStyle;rounded=0;orthogonalLoop=1;jettySize=auto;html=1;" parent="1" source="zMXVDSBJU7xBFvs_jf8E-1" edge="1">
          <mxGeometry relative="1" as="geometry">
            <mxPoint x="60" y="-829" as="targetPoint" />
            <Array as="points">
              <mxPoint x="600" y="-799" />
              <mxPoint x="60" y="-799" />
              <mxPoint x="60" y="-829" />
            </Array>
          </mxGeometry>
        </mxCell>
        <mxCell id="zMXVDSBJU7xBFvs_jf8E-1" value="senderId" style="rounded=0;whiteSpace=wrap;html=1;" parent="1" vertex="1">
          <mxGeometry x="560" y="-639" width="80" height="40" as="geometry" />
        </mxCell>
        <mxCell id="zMXVDSBJU7xBFvs_jf8E-5" style="edgeStyle=orthogonalEdgeStyle;rounded=0;orthogonalLoop=1;jettySize=auto;html=1;entryX=0.75;entryY=1;entryDx=0;entryDy=0;" parent="1" source="zMXVDSBJU7xBFvs_jf8E-2" target="qdAGqf43j6XcbU9vUbqh-1" edge="1">
          <mxGeometry relative="1" as="geometry">
            <Array as="points">
              <mxPoint x="680" y="-809" />
              <mxPoint x="70" y="-809" />
            </Array>
          </mxGeometry>
        </mxCell>
        <mxCell id="zMXVDSBJU7xBFvs_jf8E-2" value="receiverId" style="rounded=0;whiteSpace=wrap;html=1;" parent="1" vertex="1">
          <mxGeometry x="640" y="-639" width="80" height="40" as="geometry" />
        </mxCell>
        <mxCell id="XHEeIuM80nBNj2g9Nezs-3" style="edgeStyle=orthogonalEdgeStyle;rounded=0;orthogonalLoop=1;jettySize=auto;html=1;entryX=0.5;entryY=1;entryDx=0;entryDy=0;exitX=0.5;exitY=1;exitDx=0;exitDy=0;" parent="1" source="XHEeIuM80nBNj2g9Nezs-1" target="bCugXcdC0v_T2JQU-v2l-1" edge="1">
          <mxGeometry relative="1" as="geometry">
            <mxPoint x="390" y="-579" as="sourcePoint" />
          </mxGeometry>
        </mxCell>
        <mxCell id="XHEeIuM80nBNj2g9Nezs-1" value="QuestionId" style="rounded=0;whiteSpace=wrap;html=1;" parent="1" vertex="1">
          <mxGeometry x="350" y="-639" width="80" height="40" as="geometry" />
        </mxCell>
        <mxCell id="XHEeIuM80nBNj2g9Nezs-5" value="--------" style="text;strokeColor=none;align=center;fillColor=none;html=1;verticalAlign=middle;whiteSpace=wrap;rounded=0;" parent="1" vertex="1">
          <mxGeometry x="40" y="-499" width="60" height="30" as="geometry" />
        </mxCell>
        <mxCell id="XHEeIuM80nBNj2g9Nezs-6" value="-------------" style="text;strokeColor=none;align=center;fillColor=none;html=1;verticalAlign=middle;whiteSpace=wrap;rounded=0;" parent="1" vertex="1">
          <mxGeometry x="100" y="-499" width="60" height="30" as="geometry" />
        </mxCell>
        <mxCell id="XHEeIuM80nBNj2g9Nezs-7" value="-------------" style="text;strokeColor=none;align=center;fillColor=none;html=1;verticalAlign=middle;whiteSpace=wrap;rounded=0;" parent="1" vertex="1">
          <mxGeometry x="360" y="-629" width="60" height="30" as="geometry" />
        </mxCell>
        <mxCell id="XHEeIuM80nBNj2g9Nezs-8" value="-------------" style="text;strokeColor=none;align=center;fillColor=none;html=1;verticalAlign=middle;whiteSpace=wrap;rounded=0;" parent="1" vertex="1">
          <mxGeometry x="90" y="-729" width="60" height="30" as="geometry" />
        </mxCell>
        <mxCell id="XHEeIuM80nBNj2g9Nezs-9" value="---------" style="text;strokeColor=none;align=center;fillColor=none;html=1;verticalAlign=middle;whiteSpace=wrap;rounded=0;" parent="1" vertex="1">
          <mxGeometry x="30" y="-729" width="60" height="30" as="geometry" />
        </mxCell>
        <mxCell id="XHEeIuM80nBNj2g9Nezs-11" value="-------------" style="text;strokeColor=none;align=center;fillColor=none;html=1;verticalAlign=middle;whiteSpace=wrap;rounded=0;" parent="1" vertex="1">
          <mxGeometry x="570" y="-629" width="60" height="30" as="geometry" />
        </mxCell>
        <mxCell id="XHEeIuM80nBNj2g9Nezs-12" value="-------------" style="text;strokeColor=none;align=center;fillColor=none;html=1;verticalAlign=middle;whiteSpace=wrap;rounded=0;" parent="1" vertex="1">
          <mxGeometry x="650" y="-629" width="60" height="30" as="geometry" />
        </mxCell>
        <mxCell id="cLrMWbzU78LzF0xY_LYU-1" value="isRepliedTo" style="rounded=0;whiteSpace=wrap;html=1;" parent="1" vertex="1">
          <mxGeometry x="920" y="-639" width="80" height="40" as="geometry" />
        </mxCell>
        <mxCell id="Nxel6HX2zgFR0hpdHEv2-1" value="&lt;u&gt;Id&lt;/u&gt;" style="rounded=0;whiteSpace=wrap;html=1;" parent="1" vertex="1">
          <mxGeometry x="40" y="-1040" width="40" height="40" as="geometry" />
        </mxCell>
        <mxCell id="Nxel6HX2zgFR0hpdHEv2-2" value="username" style="rounded=0;whiteSpace=wrap;html=1;" parent="1" vertex="1">
          <mxGeometry x="80" y="-1040" width="80" height="40" as="geometry" />
        </mxCell>
        <mxCell id="Nxel6HX2zgFR0hpdHEv2-3" value="email" style="rounded=0;whiteSpace=wrap;html=1;" parent="1" vertex="1">
          <mxGeometry x="240" y="-1040" width="40" height="40" as="geometry" />
        </mxCell>
        <mxCell id="Nxel6HX2zgFR0hpdHEv2-4" value="password" style="rounded=0;whiteSpace=wrap;html=1;" parent="1" vertex="1">
          <mxGeometry x="280" y="-1040" width="80" height="40" as="geometry" />
        </mxCell>
        <mxCell id="Nxel6HX2zgFR0hpdHEv2-5" value="AppUser:Identity" style="text;strokeColor=none;align=center;fillColor=none;html=1;verticalAlign=middle;whiteSpace=wrap;rounded=0;movable=1;resizable=1;rotatable=1;deletable=1;editable=1;locked=0;connectable=1;" parent="1" vertex="1">
          <mxGeometry x="40" y="-1070" width="100" height="30" as="geometry" />
        </mxCell>
        <mxCell id="Nxel6HX2zgFR0hpdHEv2-6" value="username" style="rounded=0;whiteSpace=wrap;html=1;" parent="1" vertex="1">
          <mxGeometry x="80" y="-869" width="80" height="40" as="geometry" />
        </mxCell>
        <mxCell id="Nxel6HX2zgFR0hpdHEv2-7" value="endUserId" style="rounded=0;whiteSpace=wrap;html=1;" parent="1" vertex="1">
          <mxGeometry x="160" y="-1040" width="80" height="40" as="geometry" />
        </mxCell>
        <mxCell id="Nxel6HX2zgFR0hpdHEv2-9" style="edgeStyle=orthogonalEdgeStyle;rounded=0;hachureGap=4;orthogonalLoop=1;jettySize=auto;html=1;fontFamily=Architects Daughter;fontSource=https%3A%2F%2Ffonts.googleapis.com%2Fcss%3Ffamily%3DArchitects%2BDaughter;fontSize=16;" parent="1" source="Nxel6HX2zgFR0hpdHEv2-8" target="qdAGqf43j6XcbU9vUbqh-1" edge="1">
          <mxGeometry relative="1" as="geometry">
            <Array as="points">
              <mxPoint x="200" y="-970" />
              <mxPoint x="60" y="-970" />
            </Array>
          </mxGeometry>
        </mxCell>
        <mxCell id="Nxel6HX2zgFR0hpdHEv2-8" value="-------------" style="text;strokeColor=none;align=center;fillColor=none;html=1;verticalAlign=middle;whiteSpace=wrap;rounded=0;" parent="1" vertex="1">
          <mxGeometry x="170" y="-1030" width="60" height="30" as="geometry" />
        </mxCell>
        <mxCell id="ZA1U-Pm2V-VIvU6qIzx3-2" style="edgeStyle=orthogonalEdgeStyle;rounded=0;hachureGap=4;orthogonalLoop=1;jettySize=auto;html=1;entryX=0.75;entryY=1;entryDx=0;entryDy=0;fontFamily=Architects Daughter;fontSource=https%3A%2F%2Ffonts.googleapis.com%2Fcss%3Ffamily%3DArchitects%2BDaughter;fontSize=16;" parent="1" source="ZA1U-Pm2V-VIvU6qIzx3-1" target="bCugXcdC0v_T2JQU-v2l-1" edge="1">
          <mxGeometry relative="1" as="geometry">
            <Array as="points">
              <mxPoint x="1060" y="-579" />
              <mxPoint x="550" y="-579" />
            </Array>
          </mxGeometry>
        </mxCell>
        <mxCell id="ZA1U-Pm2V-VIvU6qIzx3-1" value="relatedQuestionId" style="rounded=0;whiteSpace=wrap;html=1;" parent="1" vertex="1">
          <mxGeometry x="1000" y="-639" width="120" height="40" as="geometry" />
        </mxCell>
        <mxCell id="cZHwrHrArSytN0k9m0kR-1" value="&lt;u&gt;Id&lt;/u&gt;" style="rounded=0;whiteSpace=wrap;html=1;" vertex="1" parent="1">
          <mxGeometry x="320" y="-760" width="40" height="40" as="geometry" />
        </mxCell>
        <mxCell id="cZHwrHrArSytN0k9m0kR-9" style="edgeStyle=orthogonalEdgeStyle;rounded=0;hachureGap=4;orthogonalLoop=1;jettySize=auto;html=1;entryX=0.5;entryY=1;entryDx=0;entryDy=0;fontFamily=Architects Daughter;fontSource=https%3A%2F%2Ffonts.googleapis.com%2Fcss%3Ffamily%3DArchitects%2BDaughter;fontSize=16;" edge="1" parent="1" source="cZHwrHrArSytN0k9m0kR-2" target="m1vTgAEKa8-uWsvJqbE5-1">
          <mxGeometry relative="1" as="geometry">
            <Array as="points">
              <mxPoint x="395" y="-900" />
              <mxPoint x="70" y="-900" />
            </Array>
          </mxGeometry>
        </mxCell>
        <mxCell id="cZHwrHrArSytN0k9m0kR-2" value="ReceiverId" style="rounded=0;whiteSpace=wrap;html=1;" vertex="1" parent="1">
          <mxGeometry x="360" y="-760" width="70" height="40" as="geometry" />
        </mxCell>
        <mxCell id="cZHwrHrArSytN0k9m0kR-3" value="IsSeen" style="rounded=0;whiteSpace=wrap;html=1;" vertex="1" parent="1">
          <mxGeometry x="430" y="-760" width="50" height="40" as="geometry" />
        </mxCell>
        <mxCell id="cZHwrHrArSytN0k9m0kR-7" style="edgeStyle=orthogonalEdgeStyle;rounded=0;hachureGap=4;orthogonalLoop=1;jettySize=auto;html=1;entryX=0.75;entryY=1;entryDx=0;entryDy=0;fontFamily=Architects Daughter;fontSource=https%3A%2F%2Ffonts.googleapis.com%2Fcss%3Ffamily%3DArchitects%2BDaughter;fontSize=16;exitX=0.5;exitY=1;exitDx=0;exitDy=0;" edge="1" parent="1" source="cZHwrHrArSytN0k9m0kR-4" target="jgZMgLfAumoGgeWZVz0Y-7">
          <mxGeometry relative="1" as="geometry">
            <Array as="points">
              <mxPoint x="490" y="-720" />
              <mxPoint x="490" y="-570" />
              <mxPoint x="80" y="-570" />
            </Array>
          </mxGeometry>
        </mxCell>
        <mxCell id="cZHwrHrArSytN0k9m0kR-4" value="AnswerId" style="rounded=0;whiteSpace=wrap;html=1;" vertex="1" parent="1">
          <mxGeometry x="480" y="-760" width="80" height="40" as="geometry" />
        </mxCell>
        <mxCell id="cZHwrHrArSytN0k9m0kR-6" value="Notification" style="text;strokeColor=none;align=center;fillColor=none;html=1;verticalAlign=middle;whiteSpace=wrap;rounded=0;movable=1;resizable=1;rotatable=1;deletable=1;editable=1;locked=0;connectable=1;" vertex="1" parent="1">
          <mxGeometry x="320" y="-790" width="60" height="30" as="geometry" />
        </mxCell>
      </root>
    </mxGraphModel>
  </diagram>
</mxfile>
